<?xml version="1.0" encoding="UTF-8"?>
<svg id="Layer_1" data-name="Layer 1" xmlns="http://www.w3.org/2000/svg" viewBox="0 0 2764.23 2465.21">
  <defs>
    <style>
      .cls-1 {
        fill: #fff;
      }
    </style>
  </defs>
  <path class="cls-1" fill="#fff" d="m656.87,1987.67c-6.11.39-4.88,6.07-7.62,9.88,6.46,1.67,8.4,6.06,9.35,11.74,1.04,6.27,5.26,8.76,11.41,7.59,5.51-1.05,10.96-2.37,17.54-3.81,26.05,78.01,51.93,155.51,77.75,232.85.84,0,1.14.06,1.4-.02.3-.09.67-.23.83-.46.37-.54.77-1.12.91-1.74,106.98-457.43,213.95-914.87,320.96-1372.52h138.37c91.11,290.61,181.97,580.4,273.63,872.78,2.25-5.96,3.78-9.68,5.08-13.48,34.94-102.34,69.84-204.69,104.77-307.04,58.57-171.62,117.17-343.23,175.75-514.85,53.96-158.08,107.88-316.17,161.96-474.21,2.22-6.49,2.81-12.73,2.29-19.52-1.99-25.87-3.53-51.78-5.38-79.78,2.71,2.85,4.26,4.18,5.44,5.78,7.14,9.62,14.26,19.26,21.28,28.96,14.19,19.61,33.54,25.35,56.35,20.24,14.88-3.34,29.49-7.9,44.22-11.93,1.19-.33,2.36-.75,5.13-1.65-1.76,3.46-2.73,5.72-4,7.79-12.16,19.88-24.49,39.66-36.49,59.64-3.05,5.07-5.75,10.55-7.48,16.19-85.36,277.29-170.61,554.61-255.84,831.94-60.21,195.91-120.36,391.83-180.56,587.75-1.26,4.1-2.75,8.13-4.24,12.5h-176.36c-81.83-260.05-163.73-520.32-245.63-780.59-.8.03-1.59.06-2.39.09-104.29,450.92-207.75,902.03-313.05,1352.22-13.87,2.33-137.27.99-167.33-1.72-40.34-139.56-80.52-279.75-121.17-421.19,30.33-6.96,59.65-13.69,89.09-20.45.57-5.69,1.09-10.88,1.64-16.41-3.26-1.82-6.33-3.53-10.02-5.59,7.07-7.82,3.21-14.79-1.36-23.46-2.4,4.34-4.2,7.59-5.98,10.8-2.88-6.07-3.14-7.65,2.19-12.02,7.43-6.1,7.14-9.66.8-19.67-3.11,5.62-5.96,10.78-9.01,16.28-3.43-3.52-2.16-7.29.91-10.55,3.83-4.06,3.72-7.68,1.15-12.52-2.04-3.84-2.38-8.59-4.29-13.09-2.4,5.7-5.05,10.74-8.67,15.62-3.58,4.84-.33,11.32,5.84,15.81-9.18,6.93,1.43,15.43-3.29,23.3-1.29-5.59-2.65-11.17-3.84-16.78-.77-3.64-.66-3.66-6.64-6.79-1.3,2.91-2.59,5.8-3.35,7.51,2.3,4.8,3.89,8.71,6.01,12.29,1.29,2.18,3.15,4.24,5.22,5.7,8.67,6.1,19.76,8.47,26.44,18.11-3.63.96-6.66.32-9.47-3.26-2.05-2.61-5.01-4.49-9.08-8.01-.33,4.48-.5,6.77-.67,9.07-.51.21-1.02.42-1.53.63-1.45-2.36-2.91-4.73-4.45-7.23-1.16,3.77-2.02,7.36-3.38,10.75-1.33,3.33-3.17,6.46-4.78,9.65-3.42-2.36-6.99-4.82-10.81-7.45-.86,2.6-1.43,4.32-2.7,8.18-1.97-7.7-3.4-13.32-4.9-19.17-6.92,6.2-7.01,14.73-8.94,22.56-1.14-6.39-2.57-12.56,1.82-17.95.61-.75,1.05-1.72,1.3-2.66.77-2.87.37-5.73-2.81-6.4-1.4-.29-3.26,1.61-4.81,2.46-5.35-3.38,3.14-12.44-5.87-14.59-3.98,3.58-2.36,7.16-.4,10.86,3.89,7.35,2.01,14.84.26,22.27-.16.69-1.33,1.15-3.13,2.61.44-5.24,1.07-9.31,1.02-13.36-.05-3.22-.1-6.91-1.62-9.54-4.04-6.99-2.5-12.66,2.55-18.11,1.1-1.19,2.07-2.51,4.34-5.3-5.25-.48-9.1-.83-13.29-1.21.79-3.52,3.25-4.42,7.03-3.93,10.75,1.39,17.84-2.94,20.29-13.74,2.86-12.61,4.62-25.46,6.92-38.6-3.5-2.41-6.44-4.5-9.45-6.49-6.08-4.02-9.32-9.34-8.09-16.88.59-3.6,1.25-7.33-3.32-9.61-4.86,16.7.23,28.89,16.17,36.1q-5.12,5.84-2.25,16c-2.35-.75-4.32-1.38-6.62-2.12-1.22,4.76-2.42,9.42-3.75,14.63-4.14-2.69-2.62-5.71-1.68-9.18,1.95-7.21.82-13.67-8.22-19.01,1.26,7.55,2.25,13.48,3.5,20.99-4.46-3.51-3.99-7.82-5.91-11.05-2.81,1.26-5.55,2.49-9.41,4.22,3.71-10.9,13.03-18.09,12.3-30.7-2.23,1.87-3.97,2.77-4.83,4.19-1,1.65-1.05,3.83-1.83,5.65-2.98,7.02-7.3,7.5-15.72,0,1.46,5.54,1.97,9.34,3.45,12.71,4.35,9.93,10.43,18.7,18.22,26.36,2.68,2.63,4.35,6.28,6.57,9.6-3.53,1.49-6.76,1.39-7.27-2.48-.68-5.11-4.47-5.9-8.26-8.14-.48,5.08-.9,9.51-1.32,13.94-.69.03-1.38.07-2.07.1-.19-2.27-.42-4.54-.57-6.81-.17-2.65-.26-5.3-.46-9.4-2.1,3.72-3.54,6.28-4.98,8.83-.52-.12-1.04-.24-1.55-.36.12-1.62.25-3.24.36-4.86.16-2.31,1.2-5.08.29-6.84-5.09-9.89-2.65-20.94-5.28-31.16-.67-2.61.54-5.32-3.25-7.36-3.01-1.62-1.08-5.51,1.77-7,4.73-2.46,5.19-6.16,4.85-10.89-.24-3.38.8-6.85,1.39-11.15-3.04-1.1-6.56-4.05-9.67,2.11-.8,1.58-4.12,1.88-7.32,3.2,4.92-12.05,13.91-9.67,23.11-8.61.88-6.13,2.28-11.62,2.27-17.1-.02-5.63-.14-10.78,7.92-14.1-4.25-2.81-6.74-4.52-9.29-6.12-2.74-1.71-5.73-3.07-8.27-5.02-3.65-2.81.36-6.31-.27-8.99-2.17-9.18,2-15.5,7.11-22.38,2.46-3.31,3.25-9,2.59-13.27-1.51-9.74-4.42-19.26-6.67-28.88-1.19-5.07-4.06-8.72-8.91-11.98v11.44l.28-.14c-1.06-1.14-2.13-2.29-3.17-3.41-1.01,1.09-2.08,2.24-3.14,3.39l.28.11c3.47-15.39-1.66-30.32-2.75-45.46-.22-3-4.31-5.72-6.76-8.75-2.84,5.95,2.03,9.55,2.38,15.18-2.62-2.41-5.25-4.83-8.15-7.49-1.95,2.94-3.86,5.83-5.78,8.72-.37-.17-.74-.34-1.11-.51,1.38-5.32,2.77-10.64,4.69-18.06-4.8,3.3-7.8,5.35-11.37,7.8,1.69,10.49,5.5,20.21,11.44,29.07,1.02,1.53,2.94,2.54,4.59,3.55,3.43,2.08,6.96,3.99,9.78,7.73-1.51.22-3.01.43-3.91.56-2.01,7.14-3.38,14.25-6.01,20.85-4.2,10.56-2.28,17.3,7.38,22.94,2.56,1.49,6.56,1.45,7.65,7.44-6.53-3.67-11.78-6.63-17.62-9.91,1.54,4.15,2.97,8.01,4.35,11.72,5.42,2.05,10.6,4.02,16.01,6.07-5.86,6.16-6.3,13.69-1.56,20.62.93,1.37,2.13,2.56,3.22,3.81,5.22,6.02,5.16,5.99,1.25,13.51-.55,1.06-.23,2.57-.34,4.3-1.86-.24-3.41-.43-5.72-.73.38-2.51.33-4.81,1.11-6.78,2.11-5.31,2.2-9.7-4.61-12.34-1.08,2.93-2.14,5.84-3.21,8.75-.42-.05-.85-.1-1.27-.15.12-2.76-.49-5.82.49-8.22,4.05-9.82,1.9-17.53-8.62-24.65,3.53,5.95,3.52,9.98.67,15.01-2.11,3.73-.41,9.61-.41,14.77-5.57-6.05-5.56-11.36.11-21.27-1.27-3.52-5.37-6.4-1.99-12.08,1.71-2.88-2.06-9.03-5.2-13.64-.45,3.53-.9,7.07-1.36,10.6-2.1-7.46-6.4-14.7-.38-23.24-3.46-.63-5.73-1.04-9.26-1.69-.55-2.1-1.45-5.55-2.35-9.01.55-.18,1.09-.37,1.64-.55,1.09,1.53,1.89,3.42,3.31,4.53,6.22,4.89,11.59,3.26,14.38-4.42,1.82-4.99,5.86-9.83,1.44-16.67-1.26,2.76-2.2,4.82-3.86,8.47-.66-7.19-1.15-12.52-1.75-19.04-7.28,4.56-4.94,12.53-10.05,17.76-2.38-10.89,7.84-20.39.25-31.27-4.21,7.47-8.11,14.41-12.02,21.36-.69-.34-1.37-.68-2.06-1.02.65-1.92,1.1-3.93,1.98-5.74,2.62-5.37,5.57-10.58,8.09-16,2.36-5.09,2.24-10.13-1.25-14.93-7.1,5.15-5.42,14.09-9.68,20.87-2.14-9.78,1.45-20.13,10.17-30.57.71,1.48,1.42,2.95,2.9,6.01.99-4.55,1.57-7.23,2.15-9.91h-.25c.53,2.93,1.06,5.84,1.61,8.84,5.71-2.41,1.23-6.01,1.66-8.92l-.28.34c3.54-4.42,7.08-8.84,10.62-13.25-.54,4.32,1.85,8.66-1.02,13.15-1.09,1.71.64,5.23,2.79,7.8,1.21-7.14,2.43-14.27,3.65-21.42.01,6.64-2.39,14,6.49,19.28-1.1-8-2.04-14.93-3.13-22.9-1.82,2.01-2.69,2.97-3.57,3.94.75-3.83,1.5-7.66,2.25-11.48.62-.02,1.25-.05,1.87-.07,1.02,4.93,2.03,9.86,3.19,15.47.6-3.11,1.11-5.78,1.76-9.16,1.46,17.26,2.68,33.75,4.38,50.18.43,4.14,1.95,8.34,3.74,12.14,3.36,7.14,3.6,7.03,11.79,5.59,3.69-5.8,7.21-11.34,10.68-16.8-3.45-3.72-6.83-7.37-10.41-11.24-.79,2.87-1.78,6.47-2.77,10.06-.81-.19-1.62-.38-2.43-.57,2.22-13.69,4.44-27.38,6.67-41.07l1.42-1.51c.32.08.84.07.94.26,5.41,10.32,12.26,19.45,21.58,26.63.79.61.77,2.27,1.79,5.57-3.39-2.45-5.14-3.7-8.51-6.14,3.07,8.99,5.54,16.19,8,23.39l-2.48,1.04c-3.08-5.92-6.17-11.84-9.25-17.76-1.16,4.78-1.73,9.23,1.42,13.26,5.76,7.36,5.56,10.52-1.49,19.4-2.44-2.99-4.74-5.83-7.56-9.29-2.59,3.71-4.75,6.79-6.94,9.91,8.75,5.82,18.31.87,27.81,1.58-1.54,2.69-3.62,4.7-3.33,6.28.27,1.46,3.02,2.54,4.77,3.64,2.03,1.27,4.15,2.38,5.58,5.01-2.97-.54-5.94-1.07-10.42-1.88,2.45,4.59,4.27,8.01,6.1,11.43-.39.27-.79.54-1.18.81-3.91-2.91-7.81-5.82-11.71-8.73-4.32,6.64,7.02,6.34,5.03,12.76-3.44-2.38-6.68-4.62-10.01-6.93-3.15,10.07-3.13,10.17,4.62,14.84,8.34,5.03,16.26,10.32,19.27,20.52.51,1.74,3.17,3.02,5.05,4.14,1.86,1.11,4,1.74,5.66,4.07-2.69-.13-5.37-.26-8.01-.39-2.46,7.13.34,12.33,10.01,18.92-5.22,3.63-6.33,8.02-2.35,12.27,3.47,3.7,7.73,6.65,11.97,10.2-5.51,1.98-8.65-.97-11.56-4.26-2.95-3.34-7.62-5.62-6.43-11.49,1.02-5.03-.5-9.55-4.26-14.45-2.07,4.38-3.69,7.79-5.33,11.27,1.2,1.73,3.14,3.38,3.56,5.35,1.74,8.17,7.32,11.82,14.57,14.66,5.38,2.11,10.15,5.78,14.83,10.45-1.61.24-3.22.49-5.2.79-3.86,4.14,1.44,6.42,2.81,9.84-2.71.6-5.21,1.15-7.27,1.6-5.86-3.93-11.51-7.72-17.16-11.51,5.74,10.55,9.67,13.19,20.73,14.84-2.77,1.78-4.8,3.09-6.9,4.43,6.08,2.06,11.66,3.96,17.23,5.85-.18.81-.36,1.63-.54,2.44-6.53-1.26-13.06-2.52-20.32-3.93q3.73,10.99.25,15.09c-.04-7.46-8.74-13.56-.57-21.24-3.1-2.87-5.43-5.03-7.61-7.05-3.55,1.92-4.56,4.47-2.69,6.96,3.52,4.71,1.69,8.57-2.42,14.73-.59-9.9-1.06-17.7-1.68-27.98-1.91-2.73-6.71-3.52-13.5-2.33,2.69,4.81,5.79,8.71,7.09,13.13,1.27,4.31-.34,9.55,1.17,13.7,2.75,7.56,10.52,9.89,17.18,12.54,4.69,1.87,8.55-1.71,12.09-4.78,4.75-4.12,10.88-4.19,17.32-.13,3.28,2.06,6.24,4.64,9.55,7.14q-5.23,1.12-12.49-4.16c1.07,5.28,1.43,9.52,6.19,12.76,3.73,2.54,6.15,7.02,9.15,10.63-.51.5-1.02,1-1.53,1.5-2.47-1.73-4.94-3.46-8.39-5.88-.35,7.28-.08,12.82,5.92,17.17,2.76,2,4.92,5.56,6.07,8.86,1.86,5.31,3.83,10.22,11.44,13.31-4.62,1.08-6.93,1.62-9.24,2.16-.12.54-.23,1.09-.35,1.63,3.07,1.38,6.14,2.76,9.01,4.05.29,2.29.59,4.72.89,7.15-.65.62-1.31,1.24-1.96,1.86Zm-97.39-179.53c-3.95,2.66-7.8,4.94-5.27,11.06.88,2.13.2,5.29-.62,7.68-1.61,4.66.57,7.64,4.41,8.32,9.49,1.68,13.22,9.66,18.9,15.77-1.76.21-3.5.15-4.51-.75-3.8-3.38-6.35-.74-7.99,2-2.01,3.37-.93,6.01,3.25,7.62,2.97,1.14,6.82,3.09,7.82,5.65,2.44,6.26,6.94,6.19,12.04,5.85.76-2.39.87-5.41,2.42-7.04,4.1-4.3,2.88-8.57.75-12.83-1.56-3.12-3.81-5.88-5.75-8.81,4.97-8.78,9.05-17.75,7.32-29.85-3.79,2.97-6.14,4.8-8.49,6.64-.39-.32-.79-.63-1.18-.95,2.3-3.64,4.59-7.27,6.94-11-4.37-6.52-9.94-10.56-17.49-12.45,3.27,4.75,6.55,9.5,10.26,14.89q-6.43-2.4-16.64-21.21c-4.65,10.04-3.44,19.88,2.75,29.63-7.71-.27-4.93-7.06-8.94-10.22Zm2.46,108c1.16-7.04,3.36-12.67,9.69-15.86,1.69-.85,2.63-4.47,2.78-6.89.39-6.58.35-13.21.14-19.81-.22-6.62-1.79-8.02-8.59-9.45-3.02,6.27-4.55,13.92-9.2,18.07-7.82,6.97,2.93,14.03-1.9,20.22-.33.42-.04,1.29-.13,1.94-.73,4.97.33,9.03,7.23,11.78Zm49.4,88.11c-8.7-3.04-14.74-11.78-23.31-32.45q-3.42,5.2.88,15.34c-3.43-2.41-6.16-4.34-8.9-6.26-.37.54-.73,1.07-1.1,1.61,6.28,5.02,8.11,14.3,17.14,16.78,1.02.28,2.14,1.85,2.38,3,1.53,7.39,7.2,9.65,13,11.41,7.28-5.3,5.3-12.47,5.04-19.04-2.87-2.72-5.5-5.2-8.13-7.69,4.88-6.56-2.52-7.37-5.1-9.88-2.5-2.44-6.27-3.58-9.95-5.53-.26,14.43,10.72,22.09,18.04,32.71Zm4.87-42.5c-.02-6.19-3.44-12.23,2.29-16.42,5.55-4.05,5.1-9.36,4.44-14.77-6.84-2.92-13.15-5.61-19.45-8.3-7.64,18.19-2.99,33.37,12.71,39.5Zm-8.68-42.22c8.76,3.24,15.55,5.75,22.35,8.26-4.07-5.34-1.54-14.23-10.08-16.01-3.21,2.03-6.77,4.28-12.27,7.75Zm-15.04-51.86c6.93,3.73,12.78,6.87,19,10.22-.25-11.35-1.97-13.03-15.17-15.44-1.06,1.45-2.2,2.99-3.84,5.22Zm5.63,85.13c-4.62,13.42-4.6,13.51,4.43,19.88,6.06-8.12,5.79-9.53-4.43-19.88Zm-25.93-186.27c-4.71-2.53-9.47-5.08-15.05-8.07,1.51,6.94,2.83,13.06,4.2,19.37,7.26-3.5,7.63-3.89,10.85-11.29Zm-5.91-43.08c.24-8.63,3.89-17.97-4.39-25.17-5.95,9.68.88,17.17,4.39,25.17Zm8.67,188.23c.66,8.21,5,11.79,10.65,15.17-.17-8.17-.35-8.44-10.65-15.17Zm-7.51-174.72c-.07.83-.14,1.66-.22,2.49,1.87,1.54,3.74,3.08,5.94,4.89,2.35-3.63,2.95-6.54-.25-8.41-1.21-.71-3.61.63-5.47,1.03Zm10.59,27.99q.52-7.41-8.14-3.66c2.87,1.29,5.47,2.46,8.14,3.66Z"/>
  <path class="cls-1" fill="#fff" d="m1387.49,2172.6c1.37,48.99-9.12,91.11-33.93,129-35.71,54.55-86.13,86.77-150.73,96.13-103.66,15.02-201.98-45.21-234.58-144.54-39.95-121.72,30.15-249.02,154.21-278.33,44.5-10.52,88.57-7.31,131.28,9.75,12.34,4.93,24.55,10.22,36.67,15.68,3.54,1.6,6.94,3.95,9.75,6.65,8.89,8.52,17.55,17.28,26.17,26.09,18.58,18.99,33.14,40.72,43.82,65.05,1.07,2.44,1.93,4.98,3.14,7.34,11.42,22.35,18.54,45.55,14.2,67.19Zm-215.05-168.19c-9.59.94-19.24,1.4-28.74,2.88-102.26,15.85-170.38,118.06-146.07,218.98,19.59,81.35,90.31,137.05,174.13,137.44,36.67.17,70.53-9.2,100.63-30.12,30.18-20.99,55.13-46.12,67.34-82.55,10.38-30.96,15.28-62.02,10.22-94.21-14.26-90.69-93.26-153.29-177.49-152.42Z"/>
  <path class="cls-1" fill="#fff" d="m311.46,1048.54c-.92-2.45-1.57-5.04-2.78-7.34-19.82-37.51-34.58-77.09-46.44-117.68-8.38-28.71-10.35-58.23-5.73-87.99.45-2.88.41-5.83.04-8.8-5.61,15.89-6.53,32.43-6.87,48.99-.89,42.49,7.98,83.3,22.15,123.08,5.34,15,11.37,29.76,17.52,45.76-2.79-.67-4.87-.93-6.76-1.68-11.92-4.7-22.43-11.78-31.65-20.51-8.68-8.22-17.27-16.72-24.68-26.07-4.83-6.09-7.85-13.74-11-20.98-3.97-9.12-6.77-18.77-10.92-27.8-8.93-19.42-16.85-39.13-19.84-60.44-.97-6.88-1.8-13.95-1.36-20.84,1.08-16.93,2.32-33.89,4.63-50.68,3.4-24.73,14.91-45.95,30.52-65.16,15.74-19.36,31.02-39.09,47.01-58.24,8.07-9.66,16.64-19.1,26.09-27.37,10.25-8.97,17.68-7.45,23.82,4.86,4.84,9.72,8.62,20.25,11.02,30.84,6.71,29.67,9.4,59.8,6.91,90.24-.57,6.95-1.73,13.85-2.59,20.78-2.18,17.62.67,34.47,7.85,50.65,2.29,5.17,4.51,10.37,6.86,15.51,6.24,13.65,6.85,27.42,2.06,41.74-7.06,21.13-13.28,42.54-20.44,63.64-5.19,15.31-8.39,30.8-7.68,46.98.33,7.49-1.74,13.74-8.11,18.15l.37.37Z"/>
  <path class="cls-1" fill="#fff" d="m2143.73,1565.16c1.81,40.76-5.24,77.02-23.83,110.44-33.48,60.19-84.48,95.73-152.87,104.32-102.83,12.93-196.16-49.92-221.54-149.4-29.15-114.24,39.95-224.62,151.74-249.53,41.33-9.21,82.17-6.03,121.39,10.29,14.9,6.2,31.42,9.78,43.63,21.17,26.4,24.63,51.03,50.75,65.2,84.84,1.4,3.38,2.69,6.82,4.35,10.08,9.72,19.04,15.64,38.82,11.93,57.79Zm-32.84,13.92c-.85-8.93-1.33-17.92-2.62-26.79-13.59-93.44-106.8-158.4-199.25-139.4-78.8,16.19-129.82,82.2-135.53,148.89-5.01,58.46,13.91,107.8,58.39,145.98,66.11,56.75,164.73,52.96,227.32-7.58q25.24-24.42,38.32-55.88c8.62-20.85,13.1-42.55,13.35-65.23Z"/>
  <path class="cls-1" fill="#fff" d="m1990.99,86.75c54.88,25,108.97,49.63,162.72,74.12,0,2.03.23,3.07-.03,3.97-13.23,44.29-26.22,88.66-39.91,132.81-6.11,19.69-17.17,36.56-32.33,50.84-32.15,30.28-80.99,20.68-103.52-8.96-15.95-20.99-24.74-44.57-25.9-71.07-1.2-27.62,3.73-54.44,10.51-80.9,8.26-32.22,17.52-64.18,26.39-96.24.34-1.25,1.07-2.39,2.08-4.57Zm65.03,120.12c1.45-4.19,2.7-7.58,3.81-11.02,2.03-6.33,4.32-12.6,5.85-19.05,1.03-4.36,1.42-9.13-4.29-12.8-15.67,17.65-31.1,35.02-46.49,52.43-1.54,1.74-2.9,3.66-4.11,5.65-3.38,5.55-3.09,7.95,2.27,11.7,3.79,2.65,8.07,4.6,12.21,6.72,3.49,1.79,7.08,3.38,11.22,5.33-3.88,14.36-7.63,28.25-11.38,42.14.7.47,1.4.94,2.1,1.4,5.16-4.48,10.87-8.48,15.37-13.54,9.29-10.43,17.78-21.56,26.91-32.13,4.03-4.67,8.82-8.68,14.1-13.78,1.71-5.99-2.34-10.2-7.93-13.27-6.09-3.34-12.43-6.22-19.64-9.79Z"/>
  <path class="cls-1" fill="#fff" d="m311.09,1048.17c.66,1.46,1.03,3.16,2.02,4.34,13.97,16.67,24.98,35.31,36.26,53.78,2.53,4.15,5.72,7.89,8.31,11.41,6.61-1.03,6.52-5.55,7.16-9.28,2.25-13.11,3.98-26.32,6.51-39.38,2.21-11.41,4.94-22.74,8-33.95,1.63-5.97,4.68-11.46,10.86-16.63.57,14.24-1.41,26.57-3.81,38.77-6.67,33.92-5.04,67.23,3.46,100.84,14.53,57.49,31.95,114.06,49.85,170.56,15.78,49.78,29.79,100.12,44.62,150.21.63,2.14,1.63,4.18,3.27,8.33,2.75-5.22,4.79-8.77,6.54-12.45,9.86-20.72,19.84-41.39,29.41-62.25,5.54-12.07,10.73-24.33,15.38-36.77,1.4-3.75,1.41-8.6.45-12.55-3.75-15.52-8.11-30.89-12.29-46.3-1.29-4.75-2.72-9.45-3.25-14.52,12.81,18.17,21.42,38.54,32.19,58.97,11.29-20.4,13.69-44.17,28.62-61.78.73.16,1.46.32,2.18.48-.5,4.4-.47,8.94-1.61,13.17-3.91,14.45-8.39,28.75-12.36,43.19-3.15,11.45-5.83,23.02-6.86,36.66,24.47-14.13,46.68-29.24,73.81-38.78-3.18,7.16-8.07,10.45-12.81,13.7-14.56,9.98-29.05,20.07-43.91,29.58-8.35,5.35-15.02,12.09-20.28,20.28-20.7,32.22-40.66,64.9-57.76,99.2-2.12,4.24-3.17,9.51-3.06,14.26.17,7.27,1.44,14.58,2.96,21.72.65,3.07,3.15,5.72,4.72,8.61,2.13,3.91,4.18,7.87,6.71,12.66h-11.51c-.58,3.25-1.16,6.53-1.74,9.81-1.57-2.3-3.13-4.6-5.88-8.63-.65,4.46-1.03,7.1-1.43,9.75-1,6.64-2.02,13.27-3.03,19.91-.32-1.55-.64-3.11-.96-4.66v-11.22c-2.07-.6-4.17-1.21-6.28-1.82-.19-.63-.68-1.34-.52-1.85,6.92-22.51-7.48-37.86-18.9-53.67-5.32-7.36-13.3-12.97-20.61-18.69-16.24-12.7-32.81-24.98-49.25-37.42-13.74-10.4-29.32-16.98-45.73-21.74-12.14-3.53-24.36-6.79-36.49-10.37-3.96-1.17-7.72-2.98-11.31-5.47,11.13-4.19,21.43.4,31.91,1.95,10.44,1.54,20.81,3.46,32.56,5.44-1.28-2.59-1.77-4.35-2.83-5.63-13.8-16.63-27.68-33.21-41.57-49.77-3.18-3.79-6.84-7.35-4.57-14.08,3.04,2.26,5.84,3.95,8.17,6.14,16.94,15.95,33.63,32.17,50.72,47.97,9.99,9.24,20.37,18.09,30.92,26.69,14.16,11.55,28.64,22.71,43,34.01.75.59,1.65.98,2.95,1.73,2.16-3.4.61-6.32-.4-9.29-11.5-33.89-22.6-67.93-34.54-101.66-14.43-40.76-28.99-81.5-44.59-121.83-12.94-33.46-27.1-66.46-41.42-99.36-11.93-27.4-27.53-52.37-51.25-71.56-7.63-6.18-14.26-13.59-18.91-22.71,20.21,7.86,35.59,23.15,54.47,34.94-.24-9.5-2.18-17.15-6.41-24.43-8.53-14.66-16.62-29.56-20.49-46.29-.13-.57.09-1.22.3-3.68,4.21,4.19,7.67,7.46,10.94,10.93,3.33,3.53,6.47,7.24,9.7,10.87,0,0-.36-.37-.36-.37Z"/>
  <path class="cls-1" fill="#fff" d="m822.61,1117.01c-2.05.48-3.3,1.01-4.57,1.04-17.3.42-28.34,9.86-35.74,24.62-9.69,19.32-19.13,38.78-29.16,57.93-7.1,13.54-14.65,26.88-22.7,39.88-3.62,5.84-8.49,11.12-13.6,15.75-13.86,12.55-29.19,23.18-45.77,31.85-25.06,13.11-50.73,24.83-77.77,33.33-1.5.47-3.12.53-6.4,1.06,20.95-58.38,43.43-114.01,94.9-151.73-52.52,31.66-82.36,81.66-108.4,136.87-6.66-12.73-8-24.5-7.91-36.23.19-24.09,3.63-47.8,12.45-70.37,4.47-11.44,9.47-22.73,15.03-33.69,8.35-16.48,19.5-31.01,33.81-42.8,10.01-8.25,20.33-16.14,30.78-23.83,24.06-17.7,51.62-26.13,81-27.65,18.62-.96,37.26,2.16,55.14,7.61,17.48,5.33,24.77,19.48,28.94,36.37Z"/>
  <path class="cls-1" fill="#fff" d="m263.62,1060.71c-6.1-3.06-12.32-5.93-18.29-9.22-19.02-10.47-38.61-19.74-59.96-24.03-16.25-3.26-32.81-5.1-49.3-6.95-5.12-.58-10.46.87-15.59,2.03,12.81,1.23,25.84,1.4,38.38,3.97,12.59,2.59,25,6.82,36.92,11.71,12.27,5.03,23.99,11.47,35.7,17.77,11.27,6.06,23.15,11.4,33.02,22.09-2.96,1.24-4.54,2.2-6.25,2.57-24.68,5.3-49.25,11.27-74.11,15.58-38.53,6.67-74.7-2.77-109.32-19.14-11.7-5.53-22.71-12.49-34.07-18.75-11.06-6.1-22.08-12.26-33.25-18.15-7.4-3.91-9.05-7.02-6.17-15.34,4.72-13.64,13.94-24.13,24.86-33.11,18.47-15.18,40.12-23.34,63.43-27.28,43.73-7.39,84.29,1.73,120.87,26.17,25.08,16.75,43.81,39.48,54.84,67.88-.57.73-1.14,1.46-1.71,2.2Z"/>
  <path class="cls-1" fill="#fff" d="m378.03,1027.4c-7.78-14.53-10.8-28.42-12.66-42.58-5.32-40.46,5.57-77.02,23.09-113.47,17.47-36.34,81.82-67.23,114.74-65.97,7.93.3,16.25.62,23.64,3.15,21.62,7.39,42.89,15.84,64.23,24.04,2.35.9,4.3,2.85,7.5,5.04-10.45,9.41-21.6,15.64-33.86,19.99-7.2,2.55-14.65,4.43-21.79,7.14-21.31,8.07-38.25,21.94-49.46,41.62-7.53,13.21-14.17,27.23-18.91,41.65-13.45,40.94-40.71,69.48-77.36,90.23-1.04.59-2.27.84-4.42,1.61.78-3.42,1.27-5.95,1.94-8.43,4.1-15.07,8-30.2,12.43-45.16,8.78-29.66,17.33-59.44,33.95-86.01,7.45-11.91,16.04-22.86,26.7-32.16,10.9-9.51,23.29-15.19,37.84-16.08,3.52-.22,7-1.12,10.33-2.49-16.19-1.85-31.58.44-45.12,9.93-5.95,4.17-11.86,8.88-16.43,14.45-13.95,16.98-26.85,34.74-35.89,54.99-4.07,9.11-8.8,17.94-12.58,27.16-8.31,20.3-16.21,40.78-24.25,61.19-1.09,2.77-2.02,5.6-3.66,10.16Z"/>
  <path class="cls-1" fill="#fff" d="m1892.75,2146.86c5.62-6.93,10.65-13.06,15.6-19.26,36.77-46.03,73.53-92.07,110.29-138.1,3.53-4.42,6.85-9.04,13.07-10.05,7.22-1.18,13.23.68,17.53,6.78,4.08,5.78,3.99,11.9.54,17.85-1.82,3.14-4.23,5.96-6.51,8.81-42.53,53.36-85,106.76-127.73,159.96-4.26,5.31-5.93,10.52-5.9,17.21.2,56.59.12,113.18.1,169.77,0,3.32.21,6.71-.35,9.96-1.52,8.9-8.85,14.65-17.7,14.3-8.89-.35-15.19-6.67-15.8-16.02-.19-2.98-.07-5.99-.07-8.99,0-56.26-.1-112.52.13-168.77.03-6.76-1.87-11.92-6.06-17.15-43.11-53.74-86.02-107.65-128.97-161.53-2.07-2.6-4.27-5.17-5.84-8.07-4.14-7.65-2.15-16.32,4.56-21.36,5.96-4.47,15.47-4.23,21.23.97,2.94,2.65,5.35,5.91,7.84,9.03,39.07,48.88,78.12,97.78,117.18,146.66,2.02,2.53,4.21,4.92,6.85,7.99Z"/>
  <path class="cls-1" fill="#fff" d="m2602.27,1402.26c-4.79,0-8.36,0-11.93,0-30.97,0-61.94,0-92.91,0-2.66,0-5.34.1-7.99-.07-9.16-.59-15.14-6.34-15.68-14.9-.56-9.02,4.89-16.37,13.68-18.1,2.58-.51,5.29-.5,7.94-.5,82.25-.02,164.51,0,246.76-.04,6.48,0,12.47.69,17.36,5.82,5,5.26,5.71,11.28,3.61,17.58-2.07,6.2-6.94,9.59-13.56,10.08-2.65.2-5.32.12-7.99.12-31.3,0-62.61,0-93.91,0-3.59,0-7.17,0-12.12,0v12.56c0,113.55-.03,227.1.09,340.65,0,6.33-.65,11.71-6.47,15.52-11.44,7.49-25.3,1.25-26.74-12.3-.35-3.3-.15-6.65-.15-9.98,0-110.89,0-221.77,0-332.66v-13.79Z"/>
  <path class="cls-1" fill="#fff" d="m325.09,1376.99c-3.54-3.31-5.96-5.45-8.25-7.73-9.9-9.87-19.99-19.56-29.58-29.73-24.88-26.38-55.8-41.52-90.74-49.09-11.68-2.53-23.56-4.37-35.45-5.58-7.78-.79-15.74.13-23.61.28-.02.78-.05,1.56-.07,2.34,10.88.89,21.81,1.48,32.64,2.79,5.83.7,11.78,1.97,17.2,4.15,12.94,5.22,25.44,11.55,38.42,16.68,27.57,10.9,50.22,28.41,69.82,50.27,3.78,4.21,7.64,8.35,11.47,12.52,3.15,3.43,6.16,6.92,6.08,12.72-1.56.41-3.03,1.05-4.53,1.16-38.53,2.87-74.8-4.13-108.2-24.36-16.5-9.99-33.53-19.12-50.04-29.09-7.65-4.62-14.99-9.91-21.85-15.64-7.43-6.2-15.56-8.56-24.96-7.52-14.21,1.58-26.79,7.51-38.96,14.56-3.07,1.78-6.21,3.46-9.98,5.55-2.57-8.31-.74-15.12,2.33-21.82,4.83-10.54,12.56-18.77,21.26-26.12,27.44-23.16,58.72-38.08,94.76-40.38,20.7-1.32,41.03,3.24,60.1,11.84,16.46,7.43,31.47,17.34,45.48,28.68,9.99,8.08,17.2,18.51,23.28,29.68,9.92,18.19,17.09,37.51,22.72,57.41.42,1.49.34,3.13.67,6.42Z"/>
  <path class="cls-1" fill="#fff" d="m1494.69,2353.1c5.4,0,9.03,0,12.67,0,54.29,0,108.59,0,162.88,0,2.66,0,5.33-.08,7.99.03,8.86.37,14.33,4.4,16.32,11.92,1.96,7.39-1.22,16.12-7.98,19.99-2.39,1.37-5.7,1.51-8.6,1.53-17.65.13-35.31.07-52.96.07-45.97,0-91.93,0-137.9,0-3,0-6.02.14-8.99-.17-10.88-1.14-15.78-6.56-16.16-17.64-.06-1.66-.02-3.33-.02-5,0-119.57,0-239.15.02-358.72,0-3.65-.12-7.4.6-10.94,1.51-7.43,7.73-12.41,14.58-12.31,9.33.14,15.9,5.11,17.18,13.46.55,3.59.34,7.31.34,10.97.01,111.25.01,222.5.01,333.74,0,3.92,0,7.84,0,13.08Z"/>
  <path class="cls-1" fill="#fff" d="m2242.53,1748.08h11.79c55.28,0,110.55,0,165.83,0,2.99,0,6.04-.21,8.97.26,8.65,1.39,14.79,9.47,13.93,17.95-.85,8.44-8.09,15.42-16.33,15.42-65.93.04-131.86.07-197.8-.02-13.81-.02-19.2-5.57-19.21-19.55-.04-121.54-.03-243.07-.01-364.61,0-2.33-.07-4.7.31-6.97,1.34-7.99,7.43-13.33,14.86-13.26,9.55.1,15.87,4.79,17.18,13.28.61,3.92.46,7.97.46,11.95.02,110.55.02,221.09.02,331.64v13.89Z"/>
  <path class="cls-1" fill="#fff" d="m845.42,1306.66c-5.88,4.97-9.59,8.68-13.84,11.6-19.14,13.12-40.78,20.87-62.64,27.81-11.36,3.6-23.18,7.23-34.94,7.8-27.73,1.33-54.72,6.72-81.81,11.87-3.21.61-6.55.54-10.18.01,17.81-16,37.84-28.19,59.51-38.19,21.77-10.05,44.5-14.34,68.39-14.45-5.6-2.98-11.45-2.47-17.31-2.27-24.19.84-46.03,9.52-67.29,20.11-2.97,1.48-5.87,3.13-8.73,4.83-11.48,6.86-23.26,12.87-37.93,13.49.27-5.7,2.81-10.54,6.97-14.22,13.44-11.89,27.13-23.5,40.74-35.2,3.01-2.59,6.75-4.59,9.08-7.67,13.3-17.57,32.06-22.86,52.7-23.71,17.61-.72,34.58,3,50.15,11.03,15.27,7.87,29.84,17.11,47.13,27.15Z"/>
  <path class="cls-1" fill="#fff" d="m296.43,1436.82c-15.17,0-28.12-.14-41.07.04-14.28.19-28.63-.12-42.81,1.25-12.84,1.25-24.51,6.63-34.18,15.96,2.63-1.07,5.27-2.13,7.9-3.2,16.79-6.83,34.03-11.5,52.37-10.59,18.62.93,37.23,1.91,55.85,2.93,1.95.11,3.87.61,6.06.97-2.71,10.21-7.08,18.93-15.07,25.56-1.53,1.27-2.99,2.66-4.34,4.13-12.82,14-28.41,17.93-47.04,15.03-16.35-2.54-32.92-6.09-49.62-3.08-12.4,2.24-24.76,4.93-36.93,8.2-3.48.93-6.63,4.22-9.22,7.07-5.51,6.09-10.56,12.61-16.89,20.28-1.03-3.78-1.93-5.78-2.09-7.84-1.26-16.65,2.34-32.43,9.08-47.54,2.03-4.55,4.59-8.86,6.9-13.27,12.87-24.54,33.33-38.02,60.52-42.17,34.53-5.28,66.08,2.02,94.93,21.5,1.54,1.04,2.85,2.41,5.64,4.79Z"/>
  <path class="cls-1" fill="#fff" d="m424.89,1171.8c17.7-3.88,32.9-5.52,48.28-.23,44.34,15.25,74.87,67.38,59.21,117.19-1.07,3.4-2.67,6.63-5.97,10.05-2.87-9.3-5.59-18.65-8.65-27.9-3.13-9.47-7.5-18.34-13.9-26.23,6.46,19.95,13.96,39.59,15.7,63.28-16.31-8.04-30.57-14.95-44.69-22.15-2.25-1.15-4.03-3.46-5.65-5.54-14.4-18.42-23.22-39-21.63-62.72.82-12.28-3.12-22.06-10.92-30.96-3.67-4.19-6.97-8.72-11.78-14.8Z"/>
  <path class="cls-1" fill="#fff" d="m2124.8,29.16c12.29,5.33,14.21,7.46,13.37,18.68-.61,8.2-2.12,16.44-4.24,24.39-3.15,11.83-7.1,23.45-10.91,35.1-1.03,3.14-2.55,6.52-6.95,5.53-4.09-.92-7.57-2.88-8.06-7.58-.31-2.95-.42-5.99-.06-8.93,2.87-23.07,11.12-44.71,16.85-67.19Z"/>
  <path class="cls-1" fill="#fff" d="m2055.13,85.47c-7.73-2.47-9.95-6.89-9.33-12.81.7-6.59,1.14-13.29,2.76-19.67,4.42-17.33,9.42-34.51,14.52-52.98,5.82,2.51,10.84,4.67,16.79,7.24-8.3,26.25-16.45,52-24.74,78.22Z"/>
  <path class="cls-1" fill="#fff" d="m509.87,1697.77s.25-.01.25-.01c-1.26.48-2.52.96-3.78,1.44,1.36-4.41,2.72-8.81,4.02-13.02-3.99-5.15-7.78-10.04-12.74-16.44-2.85,12.83-5.35,24.1-7.86,35.37-.87-.09-1.74-.18-2.6-.27-.68-3.82.29-7.62,1.06-11.56,1.77-9.11,3.22-18.28,4.8-27.43,1.37.5,2.75,1.01,4.12,1.51.19-1.23.91-3.27.49-3.55-1.3-.84-3.04-1-4.61-1.43.81-.8,1.8-2.42,2.41-2.29,7.23,1.56,11.93-2.57,16.27-7.18,4.06-4.32,7.76-8.97,12.61-14.63.83,7.05-1.23,11.93-3.56,16.77v-5.31c-4.59,4.77-12.75,6.37-11.41,14.92-2.79.44-5.54.88-8.82,1.4,2.96,6.17,5.93,11.28,10.8,15.81,2.35-5.79,4.3-10.58,6.25-15.37.57,2.07,1.14,4.14,1.71,6.21-.99,3.43-2.1,6.82-2.96,10.28-1.24,4.98-2.31,10-3.46,15.01,0,0,.28-.34.28-.34-1.09.03-2.18.07-3.27.1Z"/>
  <path class="cls-1" fill="#fff" d="m496.96,1629.97c2.84,3.49,5.69,6.97,8.53,10.45-.36.52-.72,1.04-1.08,1.56-1.4-.73-2.81-1.45-5.12-2.65,1.04,5.47,1.98,10.38,2.92,15.29-.65.21-1.3.42-1.96.64-2-5.6-4.01-11.2-6.62-18.5-1.86,4.87-3.27,8.54-4.67,12.2-.63-.08-1.25-.16-1.88-.24.34-4.13.68-8.26,1.07-13.04-2.13.15-4.23.3-6.33.45v.02c1.33-3.29,2.64-6.57,3.96-9.86,0,.84,0,1.68,0,2.52.99-.38,2.58-.51,2.86-1.18,1.05-2.55,1.68-5.28,2.47-7.94-.09,2.31-.15,4.63-.29,6.94-.2,3.26,2.05,3.66,4.46,3.91.68.16,1.24-.02,1.69-.55Z"/>
  <path class="cls-1" fill="#fff" d="m509.58,1604.36c16.69,11.78,18.79,11.52,15.63,28.2,2.05-9.42-3.56-14.77-10.79-20.36v16.4c-4.26-6.81-5.49-14.39-4.59-24.38,0,0-.25.15-.25.15Z"/>
  <path class="cls-1" fill="#fff" d="m560.84,1686.14l-1.42,1.51c-5.46-9.21-11.06-18.34-16.28-27.69-1.26-2.27-1.23-5.25-.92-8.25,6.76,11.27,14.76,21.72,18.61,34.43Z"/>
  <path class="cls-1" fill="#fff" d="m656.87,1987.67c.65-.62,1.31-1.24,1.96-1.86h7.96c-1.06,3.45-2.87,6.42-2.55,9.14.29,2.51,2.85,4.77,4.67,7.55-7.96-.73-8.06-.85-12.04-14.83Z"/>
  <path class="cls-1" fill="#fff" d="m544.87,1759.9c.91,1.9,1.81,3.81,2.95,6.19-11.25-1.77-10.42,10.5-19.03,13.58,2.08-8.1,6.76-13.71,10.32-19.82,0,0-.28-.11-.28-.11.68,1.26,1.36,2.52,2.04,3.78,1.42-1.25,2.85-2.51,4.27-3.76l-.28.14Z"/>
  <path class="cls-1" fill="#fff" d="m478.33,1651.63c-.49,1.83-1.19,3.63-1.43,5.5-.27,2.1.09,4.02,3.08,3.14.21.85.75,1.79.56,2.54-1.39,5.57-2.92,11.09-4.4,16.63-.64-.08-1.29-.17-1.93-.25.56-8.62,1.07-17.25,1.78-25.86.05-.62,1.53-1.12,2.35-1.68,0,0-.02-.03-.02-.03Z"/>
  <path class="cls-1" fill="#fff" d="m495.27,1630.53c.62-6.96,1.24-13.93,1.86-20.89,0,4.2,0,8.4,0,13.33,3.63,1.68,7.61,3.53,13.44,6.23-5.89.34-9.75.56-13.61.78-.45.53-1.01.71-1.69.55Z"/>
  <path class="cls-1" fill="#fff" d="m496.85,1609.99c.71-2.41,1.42-4.83,2.12-7.24,2.79,6.07,5.59,12.14,8.38,18.2-.49.26-.98.51-1.47.77-3.01-3.91-6.03-7.82-9.04-11.73Z"/>
  <path class="cls-1" fill="#fff" d="m490.92,1620.11c-.37-3.77,2.01-8.03-2-11.15,1.03-2.83-1.54-6.89,2.93-8.53.32,1.56.64,3.11.96,4.67-.63,5.01-1.26,10.01-1.89,15.02Z"/>
  <path class="cls-1" fill="#fff" d="m509.58,1604.36s.25-.14.25-.15c-3.74-.76-4.06-3.85-4.62-6.78.22-.44.47-.86.73-1.27,3.71,1.62,7.23,3.33,3.64,8.19Z"/>
  <path class="cls-1" fill="#fff" d="m524.94,1679.03c-.84-4.11,2.96-9.01-2.12-12.39.65-1.34,1.29-2.67,1.94-4.01,2.39,5.68,2.67,11.07.18,16.4Z"/>
  <path fill="#fff" d="m506.34,1699.2c1.26-.48,2.52-.96,3.78-1.44-.58,2.68-1.16,5.36-2.15,9.91-1.47-3.06-2.18-4.54-2.9-6.01.42-.82.84-1.64,1.26-2.46Z"/>
  <path class="cls-1" fill="#fff" d="m535.91,1669.66v-7.41c.15,0,.3-.01.45-.02v7.02c-.15.14-.3.28-.45.41Z"/>
  <path class="cls-1" fill="#fff" d="m534.33,1618.17c-5.07-1.18-3.84-5.69-4.4-9.24,1.46,3.09,2.92,6.17,4.39,9.26l.02-.02Z"/>
  <path class="cls-1" fill="#fff" d="m482.17,1604.82c.6-3.76,1.21-7.51,1.81-11.27.43,3.86,2.37,8.01-1.94,11.04.03.05.13.23.13.23Z"/>
  <path class="cls-1" fill="#fff" d="m478.35,1651.65c-.44-4.13-.87-8.25-1.31-12.38.42-.03.83-.06,1.25-.08,0,4.12,0,8.24.02,12.39.02.04.04.07.04.07Z"/>
  <path class="cls-1" fill="#fff" d="m482.22,1621.52c-.72,3.03-1.44,6.06-2.07,8.72q-.62-4.98,2.12-8.63s-.04-.08-.04-.08Z"/>
  <path class="cls-1" fill="#fff" d="m482.27,1621.61c-.01-5.56-.02-11.12-.06-16.73-.03-.05-.13-.23-.16-.28.02,5.57.07,11.19.15,16.87.03.06.08.14.08.14Z"/>
  <path class="cls-1" fill="#fff" d="m505.94,1596.17c-.27.41-.51.83-.73,1.27-2.09,1.21-4.19,2.42-6.28,3.63.23-5.41,3.79-6.48,8.24-6.38-.02-.01-.36-.14-.36-.14-.15.61-.45,1.16-.87,1.62Z"/>
  <path class="cls-1" fill="#fff" d="m481.82,1636.12c.38,3.5.76,7.01,1.14,10.51-.38.03-.75.06-1.13.09,0-3.52,0-7.05,0-10.58,0,0-.01-.02-.01-.02Z"/>
  <path class="cls-1" fill="#fff" d="m534.31,1618.19v9.99l-1.23-.1c.41-3.3.83-6.59,1.24-9.9,0,0-.01,0-.01,0Z"/>
  <path class="cls-1" fill="#fff" d="m523.68,1594.11c-.84-1.78-1.68-3.55-2.52-5.33.37-.17.74-.35,1.11-.52.82,1.78,1.64,3.56,2.47,5.35l-1.06.5Z"/>
  <path class="cls-1" fill="#fff" d="m506.81,1594.55s.33.13.36.14c-1.41-3.65-2.84-7.32-4.28-10.99,1.31,3.62,2.61,7.23,3.92,10.85Z"/>
  <path class="cls-1" fill="#fff" d="m1244.52,2062.35c2.23,2.63,3.91,4.61,5.51,6.49-.29.82-.32,1.64-.72,1.93-3.9,2.82-7.39,5.14-8.15,11.09-.84,6.62-5.19,8.03-12.03,5.65-3.75-1.31-7.4-2.96-11.01-4.64-1.1-.51-2.7-1.58-2.76-2.48-.37-6.21-5.41-7.72-10.33-10.49,2.79-4.34,5.57-8.66,8.63-13.41-1.18-2.31-2.51-4.89-3.84-7.48,4.49-10.57,10.17-14.75,19.96-14.67,8.82.07,16.39,5.16,19.43,13.06,2.72,7.07,1.58,10.8-4.7,14.95Z"/>
  <path class="cls-1" fill="#fff" d="m1184.57,2307.61c-5,5.47-10.02,10.96-15.35,16.79-7.07-3.02-13.09-8.94-20.57-8.01-2.59-3.48-4.92-6.6-7.88-10.57,3.35-3.48-4.29-8.87,0-13.93-3.92-8.01,3.74-9.44,6.86-13.67,4.6,1.28,6.68,8.38,12.22,4.08,2,5.29,9.57,2.48,11.6,8.04.57,1.55,2.64,2.53,3.94,3.85,1.03,1.04,2.42,2.04,2.81,3.31,1.56,5.04,1.98,6.03,6.36,10.09Z"/>
  <path class="cls-1" fill="#fff" d="m1075.51,2288.54c.89-5.6-10.51-6.36-7.31-14.44-4.32-5.38,2.26-11.53-1.69-16.5,2.88-2.74,5.25-5,6.96-6.63,5.43.76,11.7-.23,14.31,2.41,4.56,4.6,13.34,2.4,15.26,10.39.33,1.37,1.95,2.94,3.34,3.46,3.76,1.41,5.05,3.9,4.6,7.68-.07.6.21,1.33.53,1.88,1.7,2.91,6.69,5.07,3.72,9.13-3.27,4.46-7.66,8.12-11.68,12.01-.6.58-1.96.89-2.77.64-4.81-1.44-9.63-2.91-14.32-4.7-3.19-1.21-6.17-2.96-10.95-5.31Zm2.72-28c-4.01,10.2.59,16.33,7.12,20.09,5.77,3.32,12.94,6.89,19.35-.49-5.85-10.17-15.89-14.54-26.47-19.6Z"/>
  <path class="cls-1" fill="#fff" d="m1138.03,2119.58c2.8-1.13,4.23-1.72,5.9-2.39-.49-1.22-.68-2.19-1.2-2.92-3.86-5.5-3.76-7.25.84-11.48,6.14-5.65,17.69-6.84,25.06-2.58,8.25,4.76,12.43,14.62,10.02,23.75-.42,1.57-1.11,3.07-1.9,5.22h-9.45c-.66,5.54,4.48,5.48,5.8,7.46-3.59,0-7.86.86-11.6-.2-5.59-1.59-11.21-3.91-16.03-7.1-3.13-2.07-4.87-6.24-7.45-9.75Z"/>
  <path class="cls-1" fill="#fff" d="m1058.5,2118.02c-7.14-5.63-6.24-15.19-11.62-21.39-.06-.07.96-.93,1.3-1.52,1.29-2.25,2.51-4.53,3.78-6.85-1.87-1.54-3.36-2.77-5.19-4.27,1.16-.59,2.04-1.44,2.79-1.34,2.62.35,5.21,1.55,7.78,1.44,2.44-.1,5.91-.68,7.06-2.34,4.73-6.86,10.98-6.43,19.1-4.81.74,4.05,1.6,8.47,2.36,12.91.5,2.9.63,5.87,1.33,8.72,1.39,5.65.21,7.57-5.45,8.37-3.44.49-7.45-.13-9.15,4.2-.12.31-.28.6-.43.9-6.85-3.42-8.9,4.83-13.67,5.98Zm4.78-31.23c4.18,8.7,7.37,9.98,16.31,6.38-1.51-4.48-3.01-8.95-4.69-13.97-4.6,3-8.11,5.3-11.61,7.58Z"/>
  <path class="cls-1" fill="#fff" d="m1214.8,2172.17c2.81,3.41,5.06,6.13,7.64,9.26-3.48-.43-6.29-.77-10.79-1.32,2.41,6.1,4.35,11.02,6.3,15.95-.38.23-.76.46-1.13.68-2.68-3.1-5.37-6.19-8.15-9.4-3.05.64-6.44.49-8.64,2.04-2.84,1.99-4.43.97-6.9-.23-5.97-2.9-9.43-8.35-13.16-13.23-1.01-1.32,1.17-6.26,3.14-8.39,3.37-3.64,8.13-4.48,12.77-2.07,2.32,1.21,4.14,3.39,6.47,4.6,1.77.91,3.97.98,6.74-.05-1.04-1.08-2.28-2.02-3.1-3.25-2.54-3.82-1.35-6.78,2.88-8.14,3.14-1.01,6.17-2.37,9.51-3.68,8.62,7.29,8.06,11.81-3.57,17.24Z"/>
  <path class="cls-1" fill="#fff" d="m1076.45,2137.2c1.46,7.13,3.51,12.66,3.44,18.16-.06,4.69-2.2,9.52-4.27,13.87-.46.96-5.33,1.19-6.84.02-6.85-5.27-13.22-11.18-19.79-16.82-2.72-2.33-4.9-5.35-2.7-8.53,1.39-2.01,4.59-3.2,7.2-3.84,5.9-1.44,11.91-2.43,17.92-3.34,1.79-.27,3.71.32,5.05.46Zm-12.22,8.6c2.86,1.29,3.88,2.01,4.95,2.11.49.04,1.08-1.16,1.63-1.79-.96-.7-1.84-1.69-2.91-1.99-.66-.19-1.61.68-3.67,1.68Z"/>
  <path class="cls-1" fill="#fff" d="m1199.81,2250.97c-3.57,3.85-6.9,7.44-10.13,10.92-4.57-1.87-8.77-3.6-12.96-5.32-6.81-2.8-11.19-16.8-6.95-22.62,2.35-3.22,5.4-5,9.43-2.8,6.75,3.68,14.08,6.65,16.85,14.95.56,1.67,2.25,2.96,3.77,4.87Z"/>
  <path class="cls-1" fill="#fff" d="m1124.41,2190.96c6-1.76,4.19-10.56,10.99-10.67,5.53-.09,11.07.91,17.04,5.22-2.96,2.66-5.31,5.12-8.01,7.11-3.87,2.85-7.64,5.39-4.72,11.16.68,1.35.48,3.28.29,4.9-.46,3.87-2.81,5.98-6.71,5.8-3.7-.18-6.98-4.32-5.29-7.72,2.94-5.91.32-10.06-3.6-15.79Z"/>
  <path class="cls-1" fill="#fff" d="m1055.78,2213.84c1.04-4.26,1.73-7.07,2.42-9.93,7.37-1.62,9.41,3.62,12.08,7.9-3.63,6.2-7.95,10.67-15.51,12.05-3.87.71-7.29,4.22-10.77,6.68-3.58,2.53-6.83,2.6-9.44-1.08-2.45-3.45-1.93-7.07,1.12-9.83,3.42-3.09,7.04-5.91,12.34-5.08,2.45.38,5.08-.43,7.75-.72Z"/>
  <path class="cls-1" fill="#fff" d="m1276.63,2187.18v-7.46c5.17-1.6,6.98-8.75,14.98-9.84-.95,6.53-1.72,11.84-2.58,17.73-5.7,1.64-9.89,4.55-8.84,11.78.25,1.7-2,4.11-3.61,5.65-2.78,2.65-6.54,2.78-8.83-.04-1.54-1.89-2.56-6.19-1.46-7.83,2.44-3.65,6.36-6.31,10.34-9.99Z"/>
  <path class="cls-1" fill="#fff" d="m1126.38,2071.05c-.99-4.75-2.34-9.31-2.76-13.96-.28-3.05.3-6.41,1.37-9.3,1.54-4.14,3.88-7.97,6.14-12.47,2.35-.26,5.77-.63,9.74-1.06.38,2.11,1.57,5.07.9,5.57-7.59,5.75-4.25,15.26-8,22.13-1.91,3.5-5.08,6.31-7.4,9.08Z"/>
  <path class="cls-1" fill="#fff" d="m1323.94,2235.08c-4.47,4.22-7.18,8.45-10.91,9.75-2.91,1.01-5.14,1.75-7.05,4.19-1.14,1.47-2.9,2.79-4.65,3.36-3.34,1.1-6.48.58-8.6-2.8-2.26-3.59-.9-7.42,1.99-8.5,7.52-2.81,13.75-8.98,22.28-8.93,1.78.01,3.55,1.44,6.94,2.92Z"/>
  <path class="cls-1" fill="#fff" d="m1251.33,2254.81c-4.98-4.06-12.07,1.88-17.75-2.37-1.47-1.1-3.48-2.68-3.54-4.11-.06-1.29,1.97-3.21,3.51-3.93,6.83-3.18,14.32-.96,21.49-2.14,3.73-.62,5.35,3.28,4.95,7.07-.42,4.01-3.15,5.87-8.66,5.48Z"/>
  <path class="cls-1" fill="#fff" d="m1279.44,2298.4c-3.93.73-7.84,1.63-11.79,2.13-4.3.54-8.07-2.71-8.23-6.73-.14-3.47,3.14-7.62,6.73-7.3,6.18.55,12.34,1.72,18.4,3.11,1.91.44,3.48,2.39,5.21,3.64-1.8,1.56-3.5,3.25-5.43,4.63-1.32.94-2.96,1.44-4.45,2.14-.15-.54-.3-1.08-.45-1.62Z"/>
  <path class="cls-1" fill="#fff" d="m1308.56,2142.62c6.94-1.35,11.53,3.66,16.25,7.07,2.63,1.9,1.76,6.18-1.13,8.77-2.63,2.36-5.7,2.54-7.88-.23-3.53-4.49-9-8.23-7.23-15.61Z"/>
  <path class="cls-1" fill="#fff" d="m1228.27,2223.38c2.15-6.26,3.49-11.75,5.95-16.68,1.38-2.77,4.81-3.17,7.78-1.2,3.39,2.26,4.62,6.44,2.11,9.25-3.59,4.03-6.83,8.96-15.84,8.63Z"/>
  <path class="cls-1" fill="#fff" d="m1262.73,2138.64c4.25-2.03,6.81-3.18,9.29-4.47,2.65-1.38,5.79-1.57,6.79,1.16.99,2.67.96,6.4-.17,9-1.29,2.97-4.42,1.84-6.78.32-2.6-1.67-5.16-3.39-9.14-6.01Z"/>
</svg>